<svg width="13" height="13" viewBox="0 0 13 13" fill="none" xmlns="http://www.w3.org/2000/svg">
<path fill-rule="evenodd" clip-rule="evenodd" d="M9.47852 7.79026C9.31633 7.70955 8.52114 7.32064 8.3731 7.26647C8.22506 7.21284 8.11729 7.1863 8.00898 7.34772C7.90122 7.50805 7.59152 7.87097 7.49736 7.97822C7.40266 8.08601 7.3085 8.09901 7.14685 8.01884C6.9852 7.93759 6.46379 7.76805 5.84604 7.21989C5.36545 6.79305 5.04052 6.26601 4.94636 6.1046C4.8522 5.94372 4.93602 5.85651 5.01711 5.77635C5.09004 5.7043 5.17876 5.58839 5.25986 5.49468C5.34095 5.40043 5.36762 5.33326 5.42151 5.22547C5.47593 5.11822 5.44872 5.02451 5.4079 4.94381C5.36762 4.8631 5.04433 4.07064 4.90935 3.74835C4.77818 3.43473 4.64483 3.47752 4.54577 3.4721C4.45107 3.46777 4.3433 3.46668 4.23554 3.46668C4.12777 3.46668 3.95251 3.50677 3.80447 3.66818C3.65588 3.82906 3.23843 4.21852 3.23843 5.01097C3.23843 5.80289 3.81753 6.56826 3.89863 6.67605C3.97973 6.7833 5.03888 8.40938 6.66136 9.10651C7.0478 9.27226 7.34878 9.37138 7.58336 9.44505C7.97088 9.56801 8.32357 9.55067 8.60224 9.50896C8.91248 9.46292 9.55907 9.11951 9.69405 8.74359C9.82849 8.36767 9.82849 8.04538 9.78821 7.97822C9.74793 7.91105 9.64017 7.87097 9.47797 7.79026H9.47852ZM6.52747 11.8002H6.52529C5.56162 11.8004 4.61564 11.5426 3.78651 11.0538L3.59057 10.9379L1.5539 11.4698L2.09763 9.4938L1.96973 9.29121C1.43097 8.43774 1.14586 7.44997 1.14733 6.44205C1.14842 3.48997 3.56172 1.08823 6.52965 1.08823C7.96653 1.08823 9.31742 1.64614 10.333 2.65798C10.834 3.15446 11.231 3.74486 11.5012 4.39504C11.7714 5.04522 11.9093 5.74226 11.9071 6.44585C11.906 9.39792 9.49267 11.8002 6.52747 11.8002ZM11.1059 1.88935C10.5062 1.2886 9.79269 0.81227 9.00668 0.487955C8.22067 0.16364 7.37781 -0.00220796 6.52693 2.21961e-05C2.95976 2.21961e-05 0.0555159 2.88981 0.0544273 6.44151C0.0527744 7.57183 0.350716 8.68259 0.918189 9.66171L0 13L3.4311 12.1041C4.38024 12.6187 5.44387 12.8884 6.52475 12.8884H6.52747C10.0946 12.8884 12.9989 9.99863 13 6.44639C13.0026 5.59991 12.8366 4.76132 12.5114 3.97912C12.1863 3.19692 11.7086 2.48663 11.1059 1.88935Z" fill="#34485A"/>
</svg>
